{"title":"Guido.Weijers.Myosotis.DVDRIP.XVID-MisterDeee","uid":6126672,"size":745231260,"categoryP":"video","categoryS":"tv_shows","magnet":"?xt=urn:btih:516fd6b157374d82f6e5d7967adc1b3bd851d02f&amp;dn=Guido.Weijers.Myosotis.DVDRIP.XVID-MisterDeee&amp;tr=udp%3A%2F%2Ftracker.openbittorrent.com%3A80&amp;tr=udp%3A%2F%2Fopen.demonii.com%3A1337&amp;tr=udp%3A%2F%2Ftracker.coppersurfer.tk%3A6969&amp;tr=udp%3A%2F%2Fexodus.desync.com%3A6969","seeders":2,"leechers":0,"uploader":"MisterDeee","files":-1,"time":1295963776,"description":"'Myosotis!', de 2de cabaretshow van Guido Weijer. \nGuido is actueel, ultrasnel, sterk, hilarisch en overdonderend en niet te stoppen!\n\nGeneral\nFormat                           : AVI\nFormat/Info                      : Audio Video Interleave\nFile size                        : 711 MiB\nDuration                         : 1h 36mn\nOverall bit rate                 : 1 029 Kbps\n\nVideo\nID                               : 0\nFormat                           : MPEG-4 Visual\nFormat profile                   : Simple@L1\nFormat settings, BVOP            : No\nFormat settings, QPel            : No\nFormat settings, GMC             : No warppoints\nFormat settings, Matrix          : Default (H.263)\nCodec ID                         : DX50\nCodec ID/Hint                    : DivX 5\nDuration                         : 1h 36mn\nBit rate                         : 799 Kbps\nWidth                            : 672 pixels\nHeight                           : 368 pixels\nDisplay aspect ratio             : 16:9\nFrame rate                       : 30.000 fps\nColor space                      : YUV\nChroma subsampling               : 4:2:0\nBit depth                        : 8 bits\nScan type                        : Progressive\nBits/(Pixel*Frame)               : 0.108\nStream size                      : 552 MiB (78%)\nWriting library                  : MasterSoft AV Encoder Core\n\nAudio\nID                               : 1\nFormat                           : AC-3\nFormat/Info                      : Audio Coding 3\nFormat profile                   : Dolby Digital\nMode extension                   : CM (complete main)\nCodec ID                         : 2000\nDuration                         : 1h 36mn\nBit rate mode                    : Constant\nBit rate                         : 224 Kbps\nChannel(s)                       : 2 channels\nChannel positions                : Front: L R\nSampling rate                    : 48.0 KHz\nBit depth                        : 16 bits\nStream size                      : 155 MiB (22%)\nAlignment                        : Split accross interleaves\nInterleave, duration             : 500 ms (15.00 video frames)\nInterleave, preload duration     : 500 ms\n\n\nLeave your comment about Audio/Video/Movie.","torrent":{"xt":"urn:btih:516fd6b157374d82f6e5d7967adc1b3bd851d02f","amp;dn":"Guido.Weijers.Myosotis.DVDRIP.XVID-MisterDeee","amp;tr":["udp%3A%2F%2Ftracker.openbittorrent.com%3A80","udp%3A%2F%2Fopen.demonii.com%3A1337","udp%3A%2F%2Ftracker.coppersurfer.tk%3A6969","udp%3A%2F%2Fexodus.desync.com%3A6969"],"infoHash":"516fd6b157374d82f6e5d7967adc1b3bd851d02f","infoHashBuffer":{"type":"Buffer","data":[81,111,214,177,87,55,77,130,246,229,215,150,122,220,27,59,216,81,208,47]},"announce":[],"urlList":[]}}